<?xml version="1.0" encoding="utf-8"?>
<!-- Generator: Adobe Illustrator 17.0.0, SVG Export Plug-In . SVG Version: 6.00 Build 0)  -->
<!DOCTYPE svg PUBLIC "-//W3C//DTD SVG 1.1//EN" "http://www.w3.org/Graphics/SVG/1.1/DTD/svg11.dtd">
<svg version="1.1" id="Calque_1" xmlns="http://www.w3.org/2000/svg" xmlns:xlink="http://www.w3.org/1999/xlink" x="0px" y="0px"
	 width="197.799px" height="68.25px" viewBox="0 0 197.799 68.25" enable-background="new 0 0 197.799 68.25" xml:space="preserve">
<g>
	<path fill="#002F87" d="M41.108,27.455l2.564,5.767H41.23l-2.391,5.357h7.202l4.72,10.564h5.862L41.108,14.287l-10.347,23.23
		c-0.171,0.408-0.568,1.142-0.822,1.513c-3.211,4.871-9.753,6.232-14.639,3.043c-4.879-3.226-6.238-9.766-3.027-14.645
		c3.199-4.888,9.761-6.248,14.634-3.039l2.946-4.469c-7.344-4.842-17.222-2.784-22.058,4.552
		c-4.835,7.366-2.798,17.219,4.553,22.046c7.343,4.841,17.215,2.818,22.057-4.556c0.371-0.549,0.995-1.64,1.254-2.259L41.108,27.455
		z"/>
	<polygon fill="#002F87" points="104.343,34.236 104.343,17.303 98.974,17.303 98.974,33.222 91.402,33.222 91.402,38.578 
		98.974,38.578 98.974,46.25 	"/>
	<path fill="#002F87" d="M192.891,33.222h-13.236v15.919h13.236v-5.363h-7.875v-5.198h7.875V33.222z M192.891,17.303h-13.236v13.465
		h5.361v-8.124h7.875V17.303z"/>
	<path fill="#002F87" d="M91.402,17.303H65.068c1.732,1.006,3.863,3.474,4.597,5.341h3.804v26.494h5.33V22.643h7.228v26.494H91.4
		L91.402,17.303L91.402,17.303z"/>
	<path fill="#002F87" d="M58.077,17.303H45.118l2.396,5.341h10.563c2.915,0,5.287,2.371,5.287,5.297c0,2.914-2.371,5.28-5.287,5.28
		h-5.856l7.092,15.92h5.849l-4.805-10.814c5.745-1.255,9.383-6.926,8.104-12.676C67.553,20.893,62.926,17.168,58.077,17.303"/>
	<path fill="#002F87" d="M115.893,14.285l-15.515,34.853h5.855l4.719-10.561h7.211l-2.384-5.357h-2.421l2.538-5.769l5.455,12.247
		c3.569,8.038,12.983,11.633,21.021,8.066c2.822-1.067,6.292-4.293,7.561-7.016v8.386h22.744l-3.529-5.358H155.28v-5.203h10.421
		l-3.529-5.357h-26.285v5.357h9.111c-0.065,0.108-0.206,0.329-0.271,0.448c-3.211,4.871-9.754,6.232-14.638,3.043
		c-4.881-3.226-6.228-9.766-3.028-14.645c3.203-4.888,9.762-6.249,14.638-3.041l2.934-4.467c-7.334-4.838-17.214-2.783-22.04,4.554
		c-0.371,0.532-0.94,1.593-1.204,2.181L115.893,14.285z"/>
	<polygon fill="#002F87" points="161.027,17.303 149.929,17.303 149.929,30.769 155.278,30.769 155.278,22.643 158.132,22.643 
		177.195,51.521 177.195,17.303 171.834,17.303 171.834,33.691 	"/>
	<line fill="none" x1="192.891" y1="17.303" x2="179.652" y2="17.303"/>
	<line fill="none" x1="179.652" y1="17.303" x2="179.652" y2="30.769"/>
	<line fill="none" x1="179.652" y1="30.769" x2="185.015" y2="30.769"/>
	<line fill="none" x1="185.015" y1="30.769" x2="185.015" y2="22.645"/>
	<line fill="none" x1="185.015" y1="22.645" x2="192.891" y2="22.645"/>
	<line fill="none" x1="192.891" y1="22.645" x2="192.891" y2="17.303"/>
	<line fill="none" x1="41.108" y1="27.455" x2="43.667" y2="33.222"/>
	<line fill="none" x1="43.667" y1="33.222" x2="41.227" y2="33.222"/>
	<line fill="none" x1="41.232" y1="33.222" x2="38.842" y2="38.578"/>
	<line fill="none" x1="41.108" y1="14.285" x2="30.761" y2="37.515"/>
	<line fill="none" x1="26.919" y1="24.383" x2="29.853" y2="19.916"/>
	<line fill="none" x1="35.661" y1="39.701" x2="41.108" y2="27.455"/>
	<path fill="#A38528" d="M10.482,62.339l-0.098,1.34c-0.544,0.129-1.106,0.205-1.651,0.205c-1.333,0-2.36-0.375-3.064-1.105
		c-0.711-0.74-1.056-1.623-1.056-2.677c0-1.102,0.371-2.04,1.118-2.847c0.742-0.803,1.773-1.213,3.064-1.213
		c0.482,0,0.946,0.063,1.371,0.161l-0.209,1.346c-0.464-0.125-0.909-0.212-1.323-0.212c-0.79,0-1.401,0.258-1.778,0.754
		c-0.394,0.504-0.58,1.09-0.58,1.836c0,0.693,0.235,1.324,0.673,1.867c0.469,0.539,1.118,0.797,1.952,0.797
		C9.384,62.589,9.92,62.51,10.482,62.339"/>
	<path fill="#A38528" d="M16.314,62.436l-0.038,1.295h-5.009c0.043-1.174,0.074-2.483,0.074-3.969c0-1.406-0.031-2.603-0.074-3.616
		h4.775l-0.068,1.296c-1.176-0.082-2.242-0.104-3.189-0.104c0.03,0.541,0.056,1.178,0.056,1.896c0.822,0,1.694-0.023,2.62-0.054
		v1.212c-0.921-0.047-1.786-0.065-2.62-0.065c0,0.791,0.013,1.544,0.051,2.22C13.954,62.547,15.115,62.51,16.314,62.436"/>
	<path fill="#A38528" d="M23.541,63.732h-1.458c0-0.171-0.542-1.003-1.611-2.538c-1.142-1.575-1.768-2.674-1.922-3.267h-0.099
		c0.099,0.852,0.142,1.624,0.142,2.303c0,0.936,0.007,2.121,0.074,3.502h-1.444c0.056-1.221,0.098-2.538,0.098-3.966
		c0-1.409-0.043-2.621-0.098-3.619h1.754c0,0.214,0.488,1.039,1.452,2.464c1.038,1.523,1.619,2.556,1.773,3.105h0.081
		c-0.093-0.868-0.131-1.633-0.131-2.333c0-1.05-0.038-2.125-0.093-3.235h1.482c-0.056,0.97-0.087,2.168-0.087,3.619
		C23.455,61.231,23.485,62.547,23.541,63.732"/>
	<path fill="#A38528" d="M30.193,56.147l-0.05,1.243c-0.779-0.04-1.508-0.075-2.2-0.075c-0.013,0.737-0.013,1.54-0.013,2.453
		c0,1.397,0.013,2.717,0.061,3.966h-1.65c0.05-1.249,0.068-2.565,0.068-3.966c0-0.876,0-1.704-0.019-2.453
		c-0.543,0-1.31,0.039-2.273,0.112l0.044-1.28H30.193L30.193,56.147z"/>
	<path fill="#A38528" d="M36.97,63.735h-1.731c-0.464-1.384-0.803-2.237-1.063-2.548c-0.242-0.32-0.624-0.483-1.168-0.483h-0.65
		c0,1.008,0.013,2.025,0.061,3.031H30.79c0.03-1.176,0.08-2.488,0.08-3.97c0-1.409-0.05-2.604-0.08-3.619h1.006
		c0.111,0,0.353,0,0.735-0.01c0.376-0.013,0.716-0.013,1.038-0.013c1.797,0,2.687,0.608,2.687,1.819c0,0.971-0.482,1.62-1.526,2.004
		v0.106c0.401,0.093,0.741,0.409,1.044,0.917C36.067,61.465,36.475,62.399,36.97,63.735 M34.772,58.371
		c0-0.765-0.505-1.159-1.496-1.159c-0.376,0-0.703,0.021-0.989,0.101c0.061,0.586,0.074,1.364,0.074,2.323
		c0.21,0.024,0.391,0.047,0.549,0.047C34.147,59.683,34.772,59.228,34.772,58.371"/>
	<path fill="#A38528" d="M42.616,62.436l-0.061,1.295h-4.98c0.05-1.174,0.062-2.483,0.062-3.969c0-1.406-0.013-2.603-0.062-3.616
		h4.762l-0.067,1.296c-1.179-0.082-2.241-0.104-3.2-0.104c0.05,0.541,0.062,1.178,0.062,1.896c0.828,0,1.699-0.023,2.632-0.054
		v1.212c-0.919-0.047-1.792-0.065-2.632-0.065c0,0.791,0.019,1.544,0.056,2.22C40.243,62.547,41.386,62.51,42.616,62.436"/>
	<path fill="#A38528" d="M51.912,63.732h-1.656c0.044-1.295,0.056-2.411,0.056-3.344h-2.97c0,0.849,0.025,1.953,0.081,3.344h-1.674
		c0.049-1.295,0.068-2.613,0.068-3.966c0-1.385-0.019-2.581-0.068-3.619h1.674c-0.062,1.083-0.081,2.095-0.081,3.037h2.977
		c0-0.826-0.019-1.825-0.061-3.037h1.656c-0.044,0.993-0.086,2.205-0.086,3.619C51.826,61.243,51.869,62.577,51.912,63.732"/>
	<path fill="#A38528" d="M60.301,59.804c0,1.192-0.358,2.167-1.106,2.949c-0.722,0.802-1.624,1.182-2.724,1.182
		c-1.03,0-1.902-0.353-2.607-1.073c-0.672-0.735-1.037-1.631-1.037-2.754c0-1.172,0.376-2.168,1.104-2.947
		c0.736-0.797,1.643-1.168,2.737-1.168c1.038,0,1.904,0.354,2.59,1.059C59.96,57.777,60.301,58.678,60.301,59.804 M58.676,59.974
		c0-0.823-0.186-1.486-0.618-1.987c-0.419-0.488-0.938-0.758-1.543-0.758c-0.576,0-1.075,0.27-1.465,0.782
		c-0.394,0.504-0.593,1.139-0.593,1.922c0,0.798,0.198,1.458,0.63,1.961c0.419,0.505,0.926,0.758,1.544,0.758
		c0.568,0,1.058-0.251,1.452-0.769C58.49,61.389,58.676,60.731,58.676,59.974"/>
	<path fill="#A38528" d="M66.212,61.656c0,1.513-1.1,2.284-3.292,2.284c-0.755,0-1.446-0.096-2.095-0.28l0.289-1.281
		c0.631,0.205,1.243,0.336,1.806,0.336c0.622,0,1.074-0.079,1.346-0.205c0.272-0.11,0.42-0.322,0.42-0.616
		c0-0.275-0.142-0.52-0.389-0.728c-0.237-0.173-0.674-0.415-1.365-0.698c-0.612-0.246-1.082-0.538-1.384-0.849
		c-0.389-0.401-0.568-0.894-0.568-1.468c0-0.646,0.242-1.182,0.754-1.555c0.487-0.375,1.211-0.556,2.144-0.556
		c0.765,0,1.427,0.073,1.939,0.182l-0.228,1.307c-0.512-0.21-1.093-0.294-1.711-0.294c-0.919,0-1.39,0.233-1.39,0.738
		c0,0.253,0.118,0.468,0.345,0.637c0.168,0.134,0.58,0.332,1.206,0.574c0.686,0.279,1.185,0.573,1.519,0.896
		C65.995,60.495,66.212,61.027,66.212,61.656"/>
	<path fill="#A38528" d="M72.711,58.133c0,0.935-0.347,1.633-1.057,2.072c-0.68,0.423-1.532,0.642-2.539,0.642h-0.396
		c0,0.72,0.026,1.694,0.063,2.885h-1.651c0.045-1.135,0.082-2.452,0.082-3.966c0-1.4-0.038-2.597-0.082-3.619h1.014
		c0.155,0,0.427,0,0.841-0.01c0.401-0.013,0.771-0.013,1.082-0.013c0.723,0,1.353,0.158,1.877,0.49
		C72.457,56.95,72.711,57.456,72.711,58.133 M71.195,58.456c0-0.828-0.561-1.245-1.672-1.245c-0.29,0-0.564,0.019-0.866,0.1
		c0.023,0.728,0.037,1.539,0.037,2.479c0.117,0.005,0.217,0.013,0.355,0.013C70.479,59.804,71.195,59.353,71.195,58.456"/>
	<path fill="#A38528" d="M75.095,63.732h-1.667c0.056-1.221,0.081-2.538,0.081-3.966c0-1.409-0.023-2.621-0.081-3.619h1.667
		c-0.044,0.989-0.081,2.185-0.081,3.619C75.014,61.236,75.051,62.558,75.095,63.732"/>
	<path fill="#A38528" d="M81.753,56.147l-0.045,1.243c-0.784-0.04-1.525-0.075-2.211-0.075c-0.023,0.737-0.023,1.54-0.023,2.453
		c0,1.397,0.023,2.717,0.081,3.966h-1.651c0.05-1.249,0.075-2.565,0.075-3.966c0-0.876-0.007-1.704-0.025-2.453
		c-0.542,0-1.296,0.039-2.279,0.112l0.05-1.28H81.753L81.753,56.147z"/>
	<path fill="#A38528" d="M88.769,63.732h-1.885c0-0.252-0.172-0.99-0.532-2.182h-2.724c-0.358,1.177-0.548,1.89-0.548,2.182h-1.754
		c0-0.147,0.458-1.401,1.365-3.735c0.902-2.319,1.371-3.612,1.371-3.85h2.218c0,0.228,0.408,1.488,1.243,3.8
		C88.345,62.261,88.769,63.513,88.769,63.732 M86.052,60.442c-0.672-2.002-1.006-3.083-1.006-3.245h-0.093
		c0,0.152-0.357,1.236-1.03,3.245H86.052z"/>
	<path fill="#A38528" d="M94.225,62.473l-0.052,1.258h-4.891c0.061-1.065,0.08-2.359,0.08-3.966c0-1.462-0.019-2.672-0.08-3.619
		h1.661c-0.05,0.888-0.061,2.074-0.061,3.619c0,1.175-0.045,2.106-0.082,2.778C91.871,62.544,93.02,62.51,94.225,62.473"/>
	<path fill="#A38528" d="M96.411,63.732h-1.674c0.062-1.221,0.093-2.538,0.093-3.966c0-1.409-0.03-2.621-0.093-3.619h1.674
		c-0.042,0.989-0.067,2.185-0.067,3.619C96.344,61.236,96.369,62.558,96.411,63.732"/>
	<path fill="#A38528" d="M102.755,62.436l-0.03,1.295h-5.011c0.049-1.174,0.061-2.483,0.061-3.969c0-1.406-0.013-2.603-0.061-3.616
		h4.781l-0.074,1.296c-1.175-0.082-2.243-0.104-3.2-0.104c0.038,0.541,0.069,1.178,0.069,1.896c0.815,0,1.673-0.023,2.606-0.054
		v1.212c-0.901-0.047-1.772-0.065-2.606-0.065c0,0.791,0.005,1.544,0.037,2.22C100.408,62.547,101.551,62.51,102.755,62.436"/>
	<path fill="#A38528" d="M109.871,63.735h-1.74c-0.45-1.384-0.809-2.237-1.058-2.548c-0.245-0.32-0.622-0.483-1.161-0.483h-0.653
		c0,1.008,0.023,2.025,0.044,3.031h-1.63c0.061-1.176,0.074-2.488,0.074-3.97c0-1.409-0.013-2.604-0.074-3.619h1.019
		c0.125,0,0.364,0,0.747-0.01c0.371-0.013,0.711-0.013,1.027-0.013c1.791,0,2.7,0.608,2.7,1.819c0,0.971-0.512,1.62-1.526,2.004
		v0.106c0.385,0.093,0.737,0.409,1.039,0.917C108.963,61.465,109.365,62.399,109.871,63.735 M107.665,58.371
		c0-0.765-0.505-1.159-1.52-1.159c-0.363,0-0.679,0.021-0.955,0.101c0.037,0.586,0.066,1.364,0.066,2.323
		c0.21,0.024,0.391,0.047,0.549,0.047C107.054,59.683,107.665,59.228,107.665,58.371"/>
	<path fill="#A38528" d="M114.355,63.732h-1.674c0.056-1.221,0.081-2.538,0.081-3.966c0-1.409-0.024-2.621-0.081-3.619h1.674
		c-0.052,0.989-0.089,2.185-0.089,3.619C114.269,61.236,114.306,62.558,114.355,63.732"/>
	<path fill="#A38528" d="M121.959,63.732h-1.458c0-0.171-0.543-1.003-1.612-2.538c-1.124-1.575-1.777-2.674-1.923-3.267h-0.105
		c0.112,0.852,0.149,1.624,0.149,2.303c0,0.936,0.031,2.121,0.082,3.502h-1.445c0.068-1.221,0.099-2.538,0.099-3.966
		c0-1.409-0.031-2.621-0.099-3.619h1.761c0,0.214,0.466,1.039,1.438,2.464c1.031,1.523,1.619,2.556,1.779,3.105h0.089
		c-0.099-0.868-0.136-1.633-0.136-2.333c0-1.05-0.044-2.125-0.099-3.235h1.481c-0.06,0.97-0.086,2.168-0.086,3.619
		C121.873,61.231,121.897,62.547,121.959,63.732"/>
	<path fill="#A38528" d="M128.617,56.147l-0.037,1.243c-0.797-0.04-1.539-0.075-2.223-0.075c0,0.737-0.013,1.54-0.013,2.453
		c0,1.397,0.019,2.717,0.068,3.966h-1.642c0.05-1.249,0.079-2.565,0.079-3.966c0-0.876-0.019-1.704-0.029-2.453
		c-0.556,0-1.311,0.039-2.273,0.112l0.049-1.28H128.617L128.617,56.147z"/>
	<path fill="#A38528" d="M134.258,62.436l-0.056,1.295h-4.99c0.044-1.174,0.068-2.483,0.068-3.969c0-1.406-0.024-2.603-0.068-3.616
		h4.761l-0.06,1.296c-1.174-0.082-2.25-0.104-3.198-0.104c0.036,0.541,0.067,1.178,0.067,1.896c0.807,0,1.694-0.023,2.618-0.054
		v1.212c-0.919-0.047-1.811-0.065-2.618-0.065c0,0.791,0.005,1.544,0.042,2.22C131.897,62.547,133.041,62.51,134.258,62.436"/>
	<path fill="#A38528" d="M141.361,63.735h-1.741c-0.45-1.384-0.802-2.237-1.056-2.548c-0.224-0.32-0.63-0.483-1.178-0.483h-0.643
		c0,1.008,0.031,2.025,0.056,3.031h-1.643c0.061-1.176,0.08-2.488,0.08-3.97c0-1.409-0.019-2.604-0.08-3.619h1.02
		c0.123,0,0.383,0,0.747-0.01c0.376-0.013,0.724-0.013,1.03-0.013c1.8,0,2.7,0.608,2.7,1.819c0,0.971-0.511,1.62-1.543,2.004v0.106
		c0.4,0.093,0.753,0.409,1.038,0.917C140.441,61.465,140.843,62.399,141.361,63.735 M139.163,58.371c0-0.765-0.52-1.159-1.518-1.159
		c-0.348,0-0.692,0.021-0.971,0.101c0.044,0.586,0.069,1.364,0.069,2.323c0.208,0.024,0.395,0.047,0.555,0.047
		C138.527,59.683,139.163,59.228,139.163,58.371"/>
	<path fill="#A38528" d="M148.255,63.732h-1.452c0-0.171-0.543-1.003-1.628-2.538c-1.125-1.575-1.748-2.674-1.927-3.267h-0.087
		c0.087,0.852,0.147,1.624,0.147,2.303c0,0.936,0.037,2.121,0.081,3.502h-1.427c0.037-1.221,0.081-2.538,0.081-3.966
		c0-1.409-0.044-2.621-0.081-3.619h1.729c0,0.214,0.476,1.039,1.466,2.464c1.027,1.523,1.62,2.556,1.767,3.105h0.081
		c-0.081-0.868-0.142-1.633-0.142-2.333c0-1.05-0.005-2.125-0.073-3.235h1.471c-0.056,0.97-0.089,2.168-0.089,3.619
		C148.169,61.231,148.2,62.547,148.255,63.732"/>
	<path fill="#A38528" d="M156.23,63.732h-1.885c0-0.252-0.176-0.99-0.547-2.182h-2.688c-0.376,1.177-0.567,1.89-0.567,2.182h-1.773
		c0-0.147,0.463-1.401,1.384-3.735c0.915-2.319,1.376-3.612,1.376-3.85h2.211c0,0.228,0.423,1.488,1.244,3.8
		C155.809,62.261,156.23,63.513,156.23,63.732 M153.511,60.442c-0.659-2.002-1.013-3.083-1.013-3.245h-0.093
		c0,0.152-0.332,1.236-1.038,3.245H153.511z"/>
	<path fill="#A38528" d="M161.821,56.147l-0.047,1.243c-0.771-0.04-1.518-0.075-2.211-0.075c-0.005,0.737-0.005,1.54-0.005,2.453
		c0,1.397,0.013,2.717,0.049,3.966h-1.643c0.05-1.249,0.082-2.565,0.082-3.966c0-0.876,0-1.704-0.031-2.453
		c-0.549,0-1.309,0.039-2.266,0.112l0.05-1.28H161.821L161.821,56.147z"/>
	<path fill="#A38528" d="M164.068,63.732h-1.661c0.052-1.221,0.075-2.538,0.075-3.966c0-1.409-0.023-2.621-0.075-3.619h1.661
		c-0.044,0.989-0.086,2.185-0.086,3.619C163.982,61.236,164.024,62.558,164.068,63.732"/>
	<path fill="#A38528" d="M172.456,59.804c0,1.192-0.371,2.167-1.1,2.949c-0.728,0.802-1.651,1.182-2.738,1.182
		c-1.036,0-1.889-0.353-2.595-1.073c-0.697-0.735-1.058-1.631-1.058-2.754c0-1.172,0.392-2.168,1.111-2.947
		c0.742-0.797,1.643-1.168,2.737-1.168c1.027,0,1.89,0.354,2.595,1.059C172.116,57.777,172.456,58.678,172.456,59.804
		 M170.839,59.974c0-0.823-0.211-1.486-0.624-1.987c-0.429-0.488-0.946-0.758-1.55-0.758c-0.564,0-1.066,0.27-1.475,0.782
		c-0.392,0.504-0.587,1.139-0.587,1.922c0,0.798,0.217,1.458,0.642,1.961c0.408,0.505,0.935,0.758,1.545,0.758
		c0.577,0,1.045-0.251,1.452-0.769C170.642,61.389,170.839,60.731,170.839,59.974"/>
	<path fill="#A38528" d="M179.684,63.732h-1.458c0-0.171-0.543-1.003-1.624-2.538c-1.12-1.575-1.755-2.674-1.918-3.267h-0.097
		c0.11,0.852,0.147,1.624,0.147,2.303c0,0.936,0.044,2.121,0.081,3.502h-1.445c0.056-1.221,0.093-2.538,0.093-3.966
		c0-1.409-0.037-2.621-0.093-3.619h1.748c0,0.214,0.47,1.039,1.452,2.464c1.027,1.523,1.624,2.556,1.777,3.105h0.082
		c-0.082-0.868-0.134-1.633-0.134-2.333c0-1.05-0.023-2.125-0.086-3.235h1.475c-0.068,0.97-0.093,2.168-0.093,3.619
		C179.592,61.231,179.615,62.547,179.684,63.732"/>
	<path fill="#A38528" d="M187.644,63.732h-1.879c0-0.252-0.17-0.99-0.523-2.182h-2.711c-0.371,1.177-0.562,1.89-0.562,2.182H180.2
		c0-0.147,0.458-1.401,1.361-3.735c0.926-2.319,1.377-3.612,1.377-3.85h2.228c0,0.228,0.421,1.488,1.249,3.8
		C187.238,62.261,187.644,63.513,187.644,63.732 M184.946,60.442c-0.68-2.002-1.006-3.083-1.006-3.245h-0.099
		c0,0.152-0.347,1.236-1.037,3.245H184.946z"/>
	<path fill="#A38528" d="M193.113,62.473l-0.056,1.258h-4.873c0.039-1.065,0.062-2.359,0.062-3.966c0-1.462-0.023-2.672-0.062-3.619
		h1.649c-0.049,0.888-0.079,2.074-0.079,3.619c0,1.175-0.013,2.106-0.06,2.778C190.776,62.544,191.89,62.51,193.113,62.473"/>
</g>
</svg>
